PathFileType	4	(x/y/z)	S09_P20_T27
DataRate	CameraRate	NumFrames	NumMarkers	Units	OrigDataRate	OrigDataStartFrame	OrigNumFrames
240	240	4	51	mm	240	198	394
Frame#	Time	Sternum			R.Acromium			L.Acromium			Top.Head			R.ASIS			L.ASIS			R.PSIS			L.PSIS			R.Great.Tro			L.Great.Tro			R.Iliac.Crest			L.Iliac.Crest			V.Sacral			R.Thigh.Upper.Post			R.Thigh.Lower.Ant			R.Thigh.Lower.Post			R.Thigh.Upper.Ant			R.Knee.Lat			R.Knee.Med			R.Shank.Upper.Post			R.Shank.Lower.Ant			R.Shank.Lower.Post			R.Shank.Upper.Ant			R.Ankle.Lat			R.Ankle.Med			R.Heel.Upper			R.Heel.Med			R.Heel.Lat			R.Toe.Lat			R.Toe.Med			R.Toe.Tip			L.Thigh.Upper.Post			L.Thigh.Lower.Ant			L.Thigh.Lower.Post			L.Thigh.Upper.Ant			L.Knee.Lat			L.Knee.Med			L.Shank.Upper.Post			L.Shank.Lower.Ant			L.Shank.Lower.Post			L.Shank.Upper.Ant			L.Ankle.Lat			L.Ankle.Med			L.Heel.Upper			L.Heel.Med			L.Heel.Lat			L.Toe.Lat			L.Toe.Med			L.Toe.Tip			Cervical.Spine			Back			
		X1	Y1	Z1	X2	Y2	Z2	X3	Y3	Z3	X4	Y4	Z4	X5	Y5	Z5	X6	Y6	Z6	X7	Y7	Z7	X8	Y8	Z8	X9	Y9	Z9	X10	Y10	Z10	X11	Y11	Z11	X12	Y12	Z12	X13	Y13	Z13	X14	Y14	Z14	X15	Y15	Z15	X16	Y16	Z16	X17	Y17	Z17	X18	Y18	Z18	X19	Y19	Z19	X20	Y20	Z20	X21	Y21	Z21	X22	Y22	Z22	X23	Y23	Z23	X24	Y24	Z24	X25	Y25	Z25	X26	Y26	Z26	X27	Y27	Z27	X28	Y28	Z28	X29	Y29	Z29	X30	Y30	Z30	X31	Y31	Z31	X32	Y32	Z32	X33	Y33	Z33	X34	Y34	Z34	X35	Y35	Z35	X36	Y36	Z36	X37	Y37	Z37	X38	Y38	Z38	X39	Y39	Z39	X40	Y40	Z40	X41	Y41	Z41	X42	Y42	Z42	X43	Y43	Z43	X44	Y44	Z44	X45	Y45	Z45	X46	Y46	Z46	X47	Y47	Z47	X48	Y48	Z48	X49	Y49	Z49	X50	Y50	Z50	X51	Y51	Z51	

198	0.82083	-268.49	1201.3	322.46	-392.57	1447.4	471.18	-401.82	1447.6	159.25	-391.39	1756.1	305.73	-323.9	1031.9	427.92	-341.43	1039	183.21	-548.23	1053.9	362.98	-549.59	1053.3	273.46	-404.81	944.51	499.39	-408.2	948.91	113.78	-408.41	1109.5	476.7	-447.68	1130.1	155.9	-568.41	1019	316.12	-415.12	695.89	465.83	-350	594.62	417.3	-426.95	607.15	435.93	-344.99	679.95	450.37	-379.02	520.58	406.05	-391.71	518.66	285.12	-469.84	351.9	409.93	-408.52	286.19	392.58	-480.15	277.07	396.14	-404.62	358.9	407.74	-472.31	92.693	368.79	-448.84	103.32	282.17	-537.59	79.351	318.92	-529.1	46.888	290.78	-535.15	49.759	355.58	-375.31	40.882	406.76	-328.21	43.071	298.22	-280.86	59.124	344.39	-375.56	686.56	146.48	-268.81	621.78	128.73	-330.91	607.31	155.61	-311.49	699.54	114.51	-268.95	543.66	137.08	-223.35	551.09	265.72	-358.51	444.36	137.35	-334.47	336.76	137.77	-387.3	373.19	144.31	-305.9	408.86	131.85	-445.57	181.85	164.59	-412	166.17	252.28	-515.18	166.84	233.74	-504.7	136.98	262.54	-529.36	142.74	206.14	-385.36	81.127	115	-328.72	63.944	211.07	-288.37	69.957	144.44	-485.82	1500.5	326.68	-532.49	1236.6	315.5
199	0.825	-263.15	1201.1	322.56	-386.94	1447.5	471.12	-396.31	1447.5	159.23	-385.73	1756	305.62	-319.01	1031.7	428.11	-335.91	1039.1	183.38	-543.11	1053.9	362.35	-544.33	1053.3	272.87	-400.49	944.45	499.24	-402.25	949.15	113.62	-403.55	1109.4	476.52	-442.08	1130.1	155.76	-563.21	1019	315.43	-412.19	696.01	465.58	-347.56	594.34	417.34	-424.46	607.33	435.69	-342.14	679.64	450.32	-377.09	520.39	405.99	-389.48	518.5	285.01	-468.64	352.11	409.69	-407.59	286.17	392.5	-479.22	277.31	395.9	-403.44	358.87	407.62	-472.06	92.882	368.58	-448.41	103.33	281.99	-537.39	79.543	318.72	-528.96	46.994	290.66	-535.03	50.035	355.45	-375.24	40.84	406.72	-328.06	42.89	298.21	-280.67	58.756	344.45	-369.42	686.75	146.44	-262.47	622.22	129.06	-324.67	607.6	155.69	-305.27	699.87	114.69	-262.4	543.9	137.52	-216.98	551.8	266.01	-350.25	442.6	138.09	-323.57	335.63	137.25	-377.2	370.7	144.6	-296.86	408.44	131.75	-430.09	177.43	163.61	-395.85	162.24	251.15	-499.11	160.26	232.8	-487.7	130.52	261.41	-512.61	135.82	205.07	-367.27	78.66	113.36	-309.91	62.717	209.21	-269.94	70.092	142.52	-480.21	1500.5	326.64	-527.1	1236.7	315.5
200	0.82917	-257.81	1201	322.67	-381.32	1447.4	471.06	-390.78	1447.3	159.2	-380.06	1755.9	305.52	-314.12	1031.5	428.28	-330.37	1039.1	183.52	-537.99	1053.9	361.72	-539.05	1053.3	272.26	-396.15	944.38	499.08	-396.31	949.32	113.45	-398.68	1109.3	476.31	-436.46	1130.1	155.59	-557.99	1019.1	314.73	-409.26	696.14	465.31	-345.14	594.05	417.36	-421.98	607.52	435.43	-339.33	679.34	450.24	-375.15	520.19	405.94	-387.26	518.32	284.89	-467.45	352.33	409.45	-406.67	286.17	392.41	-478.3	277.56	395.66	-402.25	358.85	407.49	-471.82	93.071	368.38	-447.97	103.35	281.8	-537.18	79.728	318.53	-528.79	47.095	290.55	-534.91	50.307	355.31	-375.17	40.801	406.68	-327.91	42.713	298.21	-280.49	58.401	344.51	-363.4	686.88	146.44	-256.28	622.55	129.43	-318.58	607.8	155.82	-299.17	700.1	114.91	-256.01	544.05	138	-210.81	552.4	266.35	-342.03	440.7	138.81	-312.67	334.45	136.78	-367.08	368.1	144.87	-287.88	407.93	131.69	-414.47	173.05	162.66	-379.54	158.38	250.02	-482.78	153.75	231.92	-470.44	124.16	260.35	-495.63	128.99	204.09	-349.12	76.315	111.73	-291.02	61.654	207.33	-251.5	70.37	140.55	-474.59	1500.4	326.59	-521.71	1236.7	315.47
201	0.83333	-252.44	1200.9	322.77	-375.7	1447.4	470.99	-385.25	1447.1	159.16	-374.4	1755.8	305.4	-309.21	1031.3	428.44	-324.81	1039	183.64	-532.85	1053.9	361.06	-533.77	1053.2	271.64	-391.8	944.3	498.91	-390.38	949.44	113.28	-393.81	1109.2	476.07	-430.81	1130	155.38	-552.75	1019	314.03	-406.34	696.26	465.03	-342.73	593.77	417.36	-419.51	607.7	435.16	-336.54	679.04	450.13	-373.22	520	405.88	-385.04	518.14	284.77	-466.25	352.55	409.21	-405.76	286.17	392.31	-477.36	277.81	395.41	-401.07	358.83	407.36	-471.58	93.262	368.17	-447.53	103.38	281.62	-536.97	79.905	318.32	-528.6	47.19	290.45	-534.8	50.575	355.16	-375.09	40.763	406.63	-327.78	42.539	298.22	-280.32	58.059	344.57	-357.51	686.94	146.5	-250.25	622.77	129.84	-312.64	607.92	156.01	-293.2	700.23	115.17	-249.79	544.1	138.5	-204.82	552.89	266.73	-333.86	438.67	139.49	-301.75	333.24	136.36	-356.94	365.41	145.13	-278.95	407.35	131.67	-398.72	168.74	161.76	-363.07	154.62	248.9	-466.19	147.31	231.12	-452.91	117.93	259.37	-478.42	122.25	203.19	-330.93	74.113	110.11	-272.05	60.774	205.43	-233.09	70.808	138.55	-468.98	1500.4	326.54	-516.3	1236.7	315.43
